<svg width="220" height="46" viewBox="0 0 220 46" fill="none" xmlns="http://www.w3.org/2000/svg">
<path d="M8.94971 18.1197L29.4182 9.00781" stroke="#82C2EB" stroke-width="0.9073" stroke-miterlimit="10"/>
<path d="M53.1528 26.5352H50.3266V22.5908H47.387V26.5352H44.5608V16.5601H47.387V20.2778H50.3266V16.5601H53.1528V26.5352Z" fill="white"/>
<path d="M54.0444 21.6224C54.0444 20.7375 54.1794 19.9626 54.4527 19.2994C54.7243 18.6362 55.0809 18.0829 55.5242 17.6397C55.9658 17.1964 56.4757 16.8614 57.0506 16.6348C57.6255 16.4082 58.2171 16.2932 58.8237 16.2932C60.2401 16.2932 61.3583 16.7265 62.1815 17.593C63.003 18.4595 63.4146 19.7327 63.4146 21.4141C63.4146 21.5774 63.408 21.759 63.3963 21.954C63.383 22.1506 63.3713 22.3239 63.358 22.4756H56.9473C57.0106 23.0571 57.2823 23.5188 57.7622 23.8604C58.2421 24.202 58.887 24.3719 59.6969 24.3719C60.2151 24.3719 60.7234 24.3253 61.2233 24.2303C61.7232 24.1353 62.1298 24.0187 62.4464 23.8787L62.8264 26.1733C62.6748 26.25 62.4731 26.325 62.2198 26.4016C61.9665 26.4766 61.6849 26.5433 61.375 26.5999C61.065 26.6566 60.7334 26.7049 60.3801 26.7416C60.0268 26.7799 59.6719 26.7982 59.3186 26.7982C58.4204 26.7982 57.6405 26.6649 56.9773 26.4C56.3141 26.135 55.7642 25.7701 55.3276 25.3101C54.891 24.8485 54.5693 24.302 54.361 23.6704C54.1494 23.0388 54.0444 22.3556 54.0444 21.6224ZM60.6817 20.5425C60.6684 20.3026 60.6284 20.0676 60.5584 19.841C60.4884 19.6144 60.3818 19.4111 60.2368 19.2344C60.0918 19.0578 59.9085 18.9128 59.6869 18.7978C59.4652 18.6845 59.1903 18.6262 58.862 18.6262C58.5454 18.6262 58.2738 18.6812 58.0471 18.7878C57.8188 18.8961 57.6305 19.0378 57.4789 19.2144C57.3273 19.3911 57.2106 19.596 57.1273 19.831C57.0456 20.0643 56.9856 20.3026 56.9473 20.5425H60.6817Z" fill="white"/>
<path d="M73.388 16.56V26.5351H70.5434C70.5434 25.9036 70.5501 25.2737 70.5618 24.6488C70.5734 24.0222 70.5867 23.444 70.6001 22.914C70.6134 22.3841 70.6284 21.9192 70.6467 21.5193C70.6651 21.121 70.6751 20.8277 70.6751 20.6377C70.3085 21.156 69.9419 21.6809 69.5752 22.2125C69.2086 22.7424 68.857 23.2657 68.5221 23.7772C68.1871 24.2888 67.8705 24.7787 67.5739 25.247C67.2756 25.7153 67.014 26.1452 66.7873 26.5368H64.3027V16.5617H67.129C67.129 17.1933 67.1256 17.7982 67.1206 18.3731C67.114 18.948 67.104 19.4696 67.0923 19.9378C67.0806 20.4061 67.0673 20.8127 67.054 21.161C67.0406 21.5093 67.0356 21.7775 67.0356 21.9675C67.7938 20.8544 68.4937 19.8562 69.132 18.9713C69.7702 18.0865 70.3934 17.2833 71 16.5634H73.388V16.56ZM68.8737 15.1936C68.4687 15.1936 68.0805 15.1336 67.7072 15.0136C67.3339 14.8936 66.9956 14.717 66.6924 14.4837C66.3891 14.2487 66.1391 13.9654 65.9441 13.6305C65.7475 13.2956 65.6309 12.9139 65.5925 12.484L67.5456 11.9724C67.6472 12.4523 67.8138 12.794 68.0488 12.9973C68.2838 13.1989 68.5571 13.3006 68.8737 13.3006C69.202 13.3006 69.4836 13.2089 69.7186 13.0256C69.9518 12.8423 70.1202 12.4973 70.2218 11.9924L72.1565 12.504C72.1182 12.9339 72.0015 13.3172 71.8049 13.6522C71.6083 13.9871 71.3616 14.2687 71.065 14.4954C70.7684 14.7237 70.4301 14.897 70.0502 15.0169C69.6719 15.1336 69.2786 15.1936 68.8737 15.1936Z" fill="white"/>
<path d="M84.0262 21.5476C84.0262 22.3191 83.9312 23.0207 83.7412 23.6523C83.5513 24.2838 83.273 24.8287 82.9064 25.2837C82.5397 25.7386 82.0848 26.0935 81.5416 26.3452C80.9983 26.5985 80.3718 26.7234 79.6635 26.7234C79.2719 26.7234 78.9053 26.6851 78.5637 26.6101C78.2221 26.5335 77.8938 26.4268 77.5772 26.2869V30.0413H74.751V16.8983C75.0043 16.8233 75.2942 16.75 75.6242 16.68C75.9525 16.61 76.2974 16.55 76.6573 16.5001C77.0173 16.4501 77.3839 16.4084 77.7572 16.3767C78.1304 16.3451 78.4871 16.3301 78.8287 16.3301C79.6502 16.3301 80.3834 16.4534 81.0283 16.7C81.6732 16.9466 82.2165 17.2949 82.6597 17.7432C83.1013 18.1914 83.4396 18.738 83.6746 19.3829C83.9095 20.0295 84.0262 20.7511 84.0262 21.5476ZM81.1433 21.6226C81.1433 20.7511 80.9467 20.0512 80.5551 19.5279C80.1635 19.003 79.5819 18.7414 78.8103 18.7414C78.557 18.7414 78.3237 18.7514 78.1088 18.7697C77.8938 18.788 77.7172 18.8114 77.5772 18.8364V23.9372C77.7538 24.0505 77.9855 24.1455 78.2704 24.2222C78.5554 24.2988 78.842 24.3355 79.1336 24.3355C80.4734 24.3338 81.1433 23.4306 81.1433 21.6226Z" fill="white"/>
<path d="M94.248 21.5274C94.248 22.3106 94.1346 23.0288 93.9063 23.6804C93.678 24.3319 93.3498 24.8885 92.9198 25.3485C92.4899 25.8101 91.975 26.1667 91.3734 26.42C90.7735 26.6733 90.1003 26.7999 89.3537 26.7999C88.6205 26.7999 87.9539 26.6733 87.3524 26.42C86.7525 26.1667 86.2359 25.8101 85.8059 25.3485C85.376 24.8869 85.0411 24.3319 84.8011 23.6804C84.5611 23.0288 84.4412 22.3123 84.4412 21.5274C84.4412 20.7442 84.5645 20.0293 84.8111 19.3844C85.0577 18.7395 85.3993 18.1896 85.8359 17.7347C86.2725 17.2797 86.7908 16.9248 87.3907 16.6732C87.9906 16.4199 88.6455 16.2932 89.3537 16.2932C90.0736 16.2932 90.7352 16.4199 91.3351 16.6732C91.935 16.9265 92.4516 17.2797 92.8815 17.7347C93.3114 18.1896 93.6464 18.7395 93.8863 19.3844C94.128 20.0293 94.248 20.7442 94.248 21.5274ZM91.3651 21.5274C91.3651 20.6542 91.1918 19.9693 90.8435 19.4694C90.4952 18.9694 90.0003 18.7195 89.3554 18.7195C88.7105 18.7195 88.2106 18.9694 87.8573 19.4694C87.504 19.9693 87.3274 20.6542 87.3274 21.5274C87.3274 22.4006 87.504 23.0921 87.8573 23.6037C88.2106 24.1153 88.7105 24.3719 89.3554 24.3719C90.0003 24.3719 90.4969 24.1153 90.8435 23.6037C91.1918 23.0921 91.3651 22.4006 91.3651 21.5274Z" fill="white"/>
<path d="M103.197 18.873H100.01V26.5352H97.1842V18.873H93.998V16.5601H103.195V18.873H103.197Z" fill="white"/>
<path d="M112.889 21.5476C112.889 22.3191 112.794 23.0207 112.604 23.6523C112.414 24.2838 112.135 24.8287 111.769 25.2837C111.402 25.7386 110.947 26.0935 110.404 26.3452C109.861 26.5985 109.234 26.7234 108.526 26.7234C108.134 26.7234 107.768 26.6851 107.426 26.6101C107.084 26.5335 106.756 26.4268 106.44 26.2869V30.0413H103.613V16.8983C103.867 16.8233 104.157 16.75 104.486 16.68C104.815 16.61 105.16 16.55 105.52 16.5001C105.88 16.4501 106.246 16.4084 106.619 16.3767C106.993 16.3451 107.349 16.3301 107.691 16.3301C108.513 16.3301 109.246 16.4534 109.891 16.7C110.536 16.9466 111.079 17.2949 111.522 17.7432C111.964 18.1914 112.302 18.738 112.537 19.3829C112.77 20.0295 112.889 20.7511 112.889 21.5476ZM110.006 21.6226C110.006 20.7511 109.809 20.0512 109.417 19.5279C109.026 19.003 108.444 18.7414 107.673 18.7414C107.419 18.7414 107.186 18.7514 106.971 18.7697C106.756 18.788 106.579 18.8114 106.44 18.8364V23.9372C106.616 24.0505 106.848 24.1455 107.133 24.2222C107.418 24.2988 107.704 24.3355 107.996 24.3355C109.334 24.3338 110.006 23.4306 110.006 21.6226Z" fill="white"/>
<path d="M113.305 21.6224C113.305 20.7375 113.44 19.9626 113.713 19.2994C113.985 18.6362 114.341 18.0829 114.785 17.6397C115.226 17.1964 115.736 16.8614 116.311 16.6348C116.886 16.4082 117.478 16.2932 118.084 16.2932C119.501 16.2932 120.619 16.7265 121.442 17.593C122.264 18.4595 122.675 19.7327 122.675 21.4141C122.675 21.5774 122.668 21.759 122.657 21.954C122.643 22.1506 122.632 22.3239 122.618 22.4756H116.208C116.271 23.0571 116.543 23.5188 117.023 23.8604C117.503 24.202 118.148 24.3719 118.957 24.3719C119.476 24.3719 119.984 24.3253 120.484 24.2303C120.984 24.1353 121.39 24.0187 121.707 23.8787L122.087 26.1733C121.935 26.25 121.734 26.325 121.48 26.4016C121.227 26.4766 120.945 26.5433 120.635 26.5999C120.325 26.6566 119.994 26.7049 119.641 26.7416C119.287 26.7799 118.932 26.7982 118.579 26.7982C117.681 26.7982 116.901 26.6649 116.238 26.4C115.575 26.135 115.025 25.7701 114.588 25.3101C114.151 24.8485 113.83 24.302 113.622 23.6704C113.408 23.0388 113.305 22.3556 113.305 21.6224ZM119.942 20.5425C119.929 20.3026 119.889 20.0676 119.819 19.841C119.749 19.6144 119.642 19.4111 119.497 19.2344C119.352 19.0578 119.169 18.9128 118.947 18.7978C118.726 18.6845 118.451 18.6262 118.123 18.6262C117.806 18.6262 117.534 18.6812 117.308 18.7878C117.079 18.8961 116.891 19.0378 116.739 19.2144C116.588 19.3911 116.471 19.596 116.389 19.831C116.308 20.0643 116.248 20.3026 116.209 20.5425H119.942Z" fill="white"/>
<path d="M132.155 26.5352H129.329V22.5908H126.39V26.5352H123.563V16.5601H126.39V20.2778H129.329V16.5601H132.155V26.5352Z" fill="white"/>
<path d="M137.105 16.2932C137.939 16.2932 138.634 16.3882 139.191 16.5782C139.747 16.7681 140.192 17.0398 140.527 17.393C140.862 17.748 141.099 18.1762 141.239 18.6828C141.377 19.1878 141.447 19.751 141.447 20.3709V26.25C141.042 26.3383 140.481 26.4433 139.759 26.5633C139.039 26.6833 138.166 26.7432 137.143 26.7432C136.498 26.7432 135.913 26.6866 135.388 26.5716C134.863 26.4583 134.412 26.2716 134.032 26.0117C133.652 25.7534 133.362 25.4151 133.159 24.9968C132.957 24.5802 132.855 24.067 132.855 23.4604C132.855 22.8788 132.972 22.3856 133.207 21.9807C133.44 21.5757 133.753 21.2541 134.145 21.0141C134.537 20.7742 134.985 20.6009 135.491 20.4925C135.998 20.3842 136.521 20.3309 137.066 20.3309C137.433 20.3309 137.759 20.3476 138.043 20.3776C138.328 20.4092 138.558 20.4509 138.736 20.5009V20.2359C138.736 19.756 138.591 19.3694 138.299 19.0794C138.008 18.7895 137.503 18.6428 136.783 18.6428C136.303 18.6428 135.828 18.6778 135.36 18.7478C134.892 18.8178 134.487 18.9161 134.147 19.0411L133.787 16.7648C133.95 16.7148 134.157 16.6598 134.403 16.6032C134.65 16.5465 134.918 16.4948 135.21 16.4515C135.5 16.4065 135.806 16.3699 136.13 16.3382C136.45 16.3099 136.776 16.2932 137.105 16.2932ZM137.333 24.5619C137.611 24.5619 137.876 24.5553 138.129 24.5436C138.383 24.5319 138.584 24.5119 138.736 24.4869V22.3439C138.623 22.3189 138.451 22.2939 138.224 22.2689C137.996 22.2439 137.788 22.2306 137.598 22.2306C137.333 22.2306 137.083 22.2473 136.85 22.2789C136.615 22.3106 136.41 22.3706 136.233 22.4589C136.056 22.5472 135.916 22.6672 135.816 22.8189C135.715 22.9705 135.665 23.1605 135.665 23.3871C135.665 23.8304 135.813 24.1353 136.11 24.307C136.406 24.4769 136.813 24.5619 137.333 24.5619Z" fill="white"/>
<path d="M141.581 26.5352C142.214 25.5087 142.867 24.5655 143.539 23.7039C144.21 22.8424 144.927 22.0075 145.687 21.196C144.888 20.3761 144.162 19.5712 143.51 18.783C142.857 17.9948 142.277 17.2533 141.771 16.5601H145.077C145.405 17.025 145.8 17.5616 146.26 18.1715C146.72 18.7814 147.323 19.5513 148.068 20.4811V16.5601H150.817V20.4944C151.589 19.5746 152.202 18.8014 152.657 18.1781C153.112 17.5532 153.504 17.015 153.834 16.5601H157.095C156.628 17.2799 156.08 18.0198 155.448 18.783C154.818 19.5463 154.08 20.3445 153.235 21.1777C153.689 21.6593 154.095 22.1109 154.455 22.5358C154.815 22.9607 155.155 23.3807 155.477 23.7989C155.798 24.2172 156.103 24.6505 156.395 25.1004C156.685 25.5503 156.988 26.0286 157.303 26.5352H154.16C153.21 25.1021 152.097 23.5923 150.817 22.0075V26.5352H148.068V22.0409C147.423 22.8974 146.81 23.7023 146.228 24.4572C145.647 25.212 145.148 25.9053 144.73 26.5335H141.581V26.5352Z" fill="white"/>
<path d="M156.79 21.6224C156.79 20.7375 156.925 19.9626 157.198 19.2994C157.47 18.6362 157.826 18.0829 158.27 17.6397C158.711 17.1964 159.221 16.8614 159.796 16.6348C160.371 16.4082 160.962 16.2932 161.569 16.2932C162.985 16.2932 164.104 16.7265 164.927 17.593C165.748 18.4595 166.16 19.7327 166.16 21.4141C166.16 21.5774 166.153 21.759 166.142 21.954C166.128 22.1506 166.117 22.3239 166.103 22.4756H159.694C159.758 23.0571 160.029 23.5188 160.509 23.8604C160.989 24.202 161.634 24.3719 162.444 24.3719C162.962 24.3719 163.47 24.3253 163.97 24.2303C164.47 24.1353 164.877 24.0187 165.193 23.8787L165.573 26.1733C165.422 26.25 165.22 26.325 164.967 26.4016C164.714 26.4766 164.432 26.5433 164.122 26.5999C163.812 26.6566 163.48 26.7049 163.127 26.7416C162.774 26.7799 162.419 26.7982 162.066 26.7982C161.167 26.7982 160.388 26.6649 159.724 26.4C159.061 26.135 158.511 25.7701 158.075 25.3101C157.638 24.8485 157.316 24.302 157.108 23.6704C156.893 23.0388 156.79 22.3556 156.79 21.6224ZM163.427 20.5425C163.414 20.3026 163.374 20.0676 163.304 19.841C163.234 19.6144 163.127 19.4111 162.982 19.2344C162.837 19.0578 162.654 18.9128 162.432 18.7978C162.211 18.6845 161.936 18.6262 161.607 18.6262C161.291 18.6262 161.019 18.6812 160.793 18.7878C160.564 18.8961 160.376 19.0378 160.224 19.2144C160.073 19.3911 159.956 19.596 159.873 19.831C159.791 20.0643 159.731 20.3026 159.693 20.5425H163.427Z" fill="white"/>
<path d="M176.324 21.5476C176.324 22.3191 176.229 23.0207 176.039 23.6523C175.849 24.2838 175.57 24.8287 175.204 25.2837C174.837 25.7386 174.382 26.0935 173.839 26.3452C173.296 26.5985 172.669 26.7234 171.961 26.7234C171.569 26.7234 171.203 26.6851 170.861 26.6101C170.519 26.5335 170.191 26.4268 169.875 26.2869V30.0413H167.048V16.8983C167.302 16.8233 167.592 16.75 167.922 16.68C168.25 16.61 168.595 16.55 168.955 16.5001C169.315 16.4501 169.681 16.4084 170.055 16.3767C170.428 16.3451 170.784 16.3301 171.126 16.3301C171.948 16.3301 172.681 16.4534 173.326 16.7C173.971 16.9466 174.514 17.2949 174.957 17.7432C175.399 18.1914 175.737 18.738 175.972 19.3829C176.205 20.0295 176.324 20.7511 176.324 21.5476ZM173.441 21.6226C173.441 20.7511 173.244 20.0512 172.852 19.5279C172.461 19.003 171.879 18.7414 171.108 18.7414C170.854 18.7414 170.621 18.7514 170.406 18.7697C170.191 18.788 170.015 18.8114 169.875 18.8364V23.9372C170.051 24.0505 170.283 24.1455 170.568 24.2222C170.853 24.2988 171.139 24.3355 171.431 24.3355C172.769 24.3338 173.441 23.4306 173.441 21.6226Z" fill="white"/>
<path d="M180.04 20.1062C180.216 20.0562 180.448 20.0145 180.733 19.9829C181.018 19.9512 181.343 19.9362 181.709 19.9362C182.291 19.9362 182.837 20.0062 183.349 20.1445C183.861 20.2845 184.307 20.4961 184.685 20.7794C185.065 21.0643 185.365 21.4243 185.587 21.8609C185.809 22.2975 185.919 22.8057 185.919 23.3873C185.919 23.9689 185.817 24.4722 185.615 24.8954C185.414 25.3187 185.122 25.667 184.742 25.9386C184.364 26.2102 183.911 26.4119 183.386 26.5452C182.861 26.6785 182.276 26.7435 181.631 26.7435C180.796 26.7435 180.031 26.7018 179.336 26.6201C178.641 26.5385 177.933 26.4085 177.212 26.2319V16.5601H180.038V20.1062H180.04ZM181.443 24.5621C181.961 24.5621 182.369 24.4638 182.666 24.2672C182.962 24.0722 183.111 23.7523 183.111 23.309C183.111 23.0824 183.061 22.8891 182.959 22.7308C182.857 22.5725 182.719 22.4458 182.543 22.3508C182.366 22.2558 182.161 22.1892 181.926 22.1525C181.693 22.1142 181.443 22.0959 181.178 22.0959C180.988 22.0959 180.779 22.1092 180.551 22.1342C180.325 22.1592 180.153 22.1859 180.04 22.2108V24.4871C180.191 24.5121 180.393 24.5321 180.646 24.5438C180.899 24.5555 181.164 24.5621 181.443 24.5621ZM190.185 26.5352H187.358V16.5601H190.185V26.5352Z" fill="white"/>
<path d="M206.232 21.301C206.232 22.0725 206.137 22.7741 205.947 23.4057C205.757 24.0372 205.479 24.5822 205.112 25.0371C204.746 25.492 204.291 25.847 203.748 26.0986C203.204 26.3519 202.578 26.4769 201.87 26.4769C201.478 26.4769 201.111 26.4385 200.77 26.3635C200.428 26.2869 200.1 26.1802 199.783 26.0403V29.7947H196.957V16.6517C197.21 16.5768 197.5 16.5034 197.83 16.4334C198.159 16.3634 198.503 16.3035 198.863 16.2535C199.223 16.2035 199.59 16.1618 199.963 16.1302C200.337 16.0985 200.693 16.0835 201.035 16.0835C201.856 16.0835 202.589 16.2068 203.234 16.4534C203.879 16.7001 204.423 17.0483 204.866 17.4966C205.307 17.9449 205.646 18.4914 205.881 19.1363C206.114 19.7846 206.232 20.5045 206.232 21.301ZM203.349 21.3777C203.349 20.5061 203.153 19.8062 202.761 19.283C202.37 18.7581 201.788 18.4964 201.016 18.4964C200.763 18.4964 200.53 18.5065 200.315 18.5248C200.1 18.5431 199.923 18.5664 199.783 18.5914V23.6923C199.96 23.8056 200.192 23.9006 200.476 23.9773C200.761 24.0539 201.048 24.0906 201.34 24.0906C202.678 24.0889 203.349 23.1857 203.349 21.3777Z" fill="url(#paint0_linear_91_1173)"/>
<path d="M195.217 24.7904C195.217 25.7486 194.441 26.5251 193.483 26.5251C192.524 26.5251 191.75 25.7486 191.75 24.7904C191.75 23.8322 192.526 23.0557 193.483 23.0557C194.441 23.0557 195.217 23.8339 195.217 24.7904Z" fill="#76C591"/>
<path d="M218.415 17.7932C217.929 17.3882 217.362 17.0733 216.719 16.845C216.074 16.6183 215.397 16.4717 214.689 16.4084V13.7788H211.94V16.4084C211.03 16.51 210.24 16.7017 209.57 16.9866C208.9 17.2716 208.35 17.6315 207.92 18.0665C207.49 18.5031 207.172 18.9996 206.962 19.5546C206.754 20.1111 206.649 20.7061 206.649 21.3376C206.649 21.9942 206.759 22.6157 206.98 23.1956C207.202 23.7772 207.534 24.2888 207.975 24.7321C208.417 25.1737 208.972 25.5353 209.635 25.8119C210.298 26.0902 211.066 26.2618 211.94 26.3235V29.7946H214.689V26.3235C215.409 26.2602 216.092 26.1185 216.737 25.8969C217.382 25.6753 217.944 25.3637 218.425 24.9587C218.905 24.5538 219.288 24.0555 219.573 23.4606C219.858 22.8674 220 22.1642 220 21.3559C220 20.5594 219.858 19.8678 219.573 19.2796C219.288 18.693 218.902 18.1981 218.415 17.7932ZM211.94 23.9372C211.143 23.8489 210.536 23.6089 210.12 23.2173C209.703 22.8257 209.493 22.2125 209.493 21.3776C209.493 20.5061 209.712 19.8662 210.148 19.4629C210.585 19.058 211.181 18.8247 211.94 18.7613V23.9372ZM216.917 22.5908C216.772 22.919 216.582 23.1823 216.349 23.3773C216.114 23.5739 215.852 23.7156 215.562 23.8039C215.272 23.8922 214.981 23.9372 214.689 23.9372V18.7597C214.979 18.773 215.271 18.823 215.562 18.9113C215.852 18.9996 216.116 19.1413 216.349 19.3379C216.582 19.5346 216.772 19.7962 216.917 20.1245C217.062 20.4528 217.135 20.8644 217.135 21.3576C217.135 21.8509 217.062 22.2625 216.917 22.5908Z" fill="url(#paint1_linear_91_1173)"/>
<path d="M45.0591 36.3153V32.2126H46.4455C46.7671 32.2126 47.0304 32.271 47.2354 32.3859C47.4404 32.5009 47.5937 32.6576 47.692 32.8542C47.7903 33.0492 47.8403 33.2691 47.8403 33.5108C47.8403 33.7524 47.792 33.9724 47.692 34.1707C47.5937 34.3673 47.442 34.5256 47.2387 34.6423C47.0354 34.7589 46.7721 34.8172 46.4522 34.8172H45.459V34.3773H46.4355C46.6572 34.3773 46.8338 34.339 46.9671 34.2623C47.1004 34.1857 47.1987 34.0823 47.2587 33.9524C47.3187 33.8224 47.3504 33.6757 47.3504 33.5108C47.3504 33.3458 47.3204 33.1991 47.2587 33.0692C47.1987 32.9408 47.1004 32.8375 46.9655 32.7642C46.8305 32.6892 46.6505 32.6526 46.4289 32.6526H45.5557V36.3153H45.0591Z" fill="white"/>
<path d="M49.4835 36.3884C49.2885 36.3884 49.1119 36.3518 48.9536 36.2768C48.7936 36.2018 48.6669 36.0952 48.5753 35.9535C48.482 35.8135 48.4353 35.6419 48.4353 35.4419C48.4353 35.2653 48.4703 35.122 48.5403 35.012C48.6086 34.902 48.7019 34.8154 48.8186 34.752C48.9352 34.6904 49.0635 34.642 49.2052 34.612C49.3452 34.5804 49.4868 34.5554 49.6301 34.5371C49.8168 34.5121 49.9684 34.4937 50.085 34.4821C50.2017 34.4687 50.2867 34.4487 50.3417 34.4171C50.3967 34.3871 50.4233 34.3321 50.4233 34.2571V34.2404C50.4233 34.0438 50.37 33.8888 50.2617 33.7788C50.155 33.6705 49.9917 33.6155 49.7751 33.6155C49.5485 33.6155 49.3718 33.6639 49.2435 33.7638C49.1152 33.8638 49.0252 33.9688 48.9736 34.0805L48.5253 33.9205C48.6053 33.7339 48.7119 33.5872 48.8469 33.4822C48.9802 33.3773 49.1285 33.3039 49.2885 33.2606C49.4485 33.2189 49.6051 33.1973 49.7601 33.1973C49.8584 33.1973 49.9717 33.2089 50.1017 33.2323C50.23 33.2556 50.355 33.3039 50.4766 33.3756C50.5983 33.4472 50.6983 33.5555 50.7783 33.7022C50.8583 33.8488 50.8983 34.0421 50.8983 34.2871V36.3151H50.4267V35.8985H50.4017C50.37 35.9652 50.3167 36.0368 50.2417 36.1135C50.1667 36.1901 50.0667 36.2535 49.9434 36.3068C49.8134 36.3601 49.6618 36.3884 49.4835 36.3884ZM49.5551 35.9635C49.7418 35.9635 49.9001 35.9268 50.0284 35.8535C50.1567 35.7802 50.255 35.6852 50.3217 35.5702C50.3867 35.4536 50.4217 35.3319 50.4217 35.2036V34.7704C50.4017 34.7954 50.3583 34.817 50.29 34.8354C50.2234 34.8554 50.145 34.8703 50.0567 34.8853C49.9701 34.9003 49.8851 34.912 49.8018 34.922C49.7201 34.932 49.6534 34.9403 49.6035 34.947C49.4801 34.9637 49.3652 34.9887 49.2602 35.0237C49.1552 35.0587 49.0685 35.112 49.0036 35.182C48.9386 35.2519 48.9069 35.3469 48.9069 35.4669C48.9069 35.6319 48.9686 35.7552 49.0902 35.8385C49.2119 35.9202 49.3668 35.9635 49.5551 35.9635Z" fill="white"/>
<path d="M51.5664 35.5302H52.0713C52.083 35.6685 52.1463 35.7752 52.2613 35.8469C52.3763 35.9185 52.5263 35.9552 52.7129 35.9552C52.9029 35.9552 53.0645 35.9169 53.1995 35.8385C53.3345 35.7602 53.4011 35.6336 53.4011 35.4586C53.4011 35.3553 53.3761 35.2653 53.3245 35.1886C53.2728 35.112 53.2028 35.052 53.1095 35.0103C53.0178 34.967 52.9095 34.947 52.7829 34.947H52.2546V34.5221H52.7829C52.9712 34.5221 53.1112 34.4787 53.2011 34.3938C53.2911 34.3071 53.3361 34.2004 53.3361 34.0721C53.3361 33.9355 53.2878 33.8238 53.1895 33.7405C53.0928 33.6572 52.9545 33.6155 52.7762 33.6155C52.5962 33.6155 52.4446 33.6555 52.3246 33.7355C52.2046 33.8172 52.1413 33.9205 52.1346 34.0471H51.6381C51.6431 33.8805 51.693 33.7355 51.7897 33.6072C51.8864 33.4806 52.018 33.3789 52.183 33.3073C52.3496 33.2339 52.5379 33.1973 52.7512 33.1973C52.9679 33.1973 53.1562 33.2356 53.3145 33.3106C53.4744 33.3856 53.5977 33.4872 53.6861 33.6172C53.7727 33.7455 53.8161 33.8922 53.8161 34.0555C53.8161 34.2288 53.7677 34.3704 53.6694 34.4754C53.5711 34.5821 53.4494 34.6587 53.3028 34.7037V34.7354C53.4194 34.7437 53.5211 34.7804 53.6061 34.847C53.6927 34.9137 53.7594 35.0003 53.8077 35.1053C53.856 35.2103 53.8794 35.3286 53.8794 35.4569C53.8794 35.6436 53.8294 35.8069 53.7294 35.9452C53.6294 36.0835 53.4911 36.1901 53.3178 36.2651C53.1428 36.3401 52.9429 36.3784 52.7179 36.3784C52.4996 36.3784 52.3046 36.3435 52.133 36.2718C51.9613 36.2001 51.8247 36.1001 51.723 35.9735C51.6247 35.8469 51.5714 35.6985 51.5664 35.5302Z" fill="white"/>
<path d="M54.5476 36.3152V33.2373H55.8057C56.1374 33.2373 56.4006 33.3123 56.5956 33.4623C56.7906 33.6123 56.8889 33.8089 56.8889 34.0555C56.8889 34.2422 56.8339 34.3871 56.7223 34.4904C56.6106 34.5921 56.469 34.6621 56.2957 34.6971C56.409 34.7137 56.519 34.7521 56.6273 34.8171C56.7339 34.8804 56.8239 34.9704 56.8939 35.0804C56.9639 35.1903 57.0006 35.3286 57.0006 35.4903C57.0006 35.6486 56.9606 35.7886 56.8806 35.9119C56.8006 36.0369 56.6856 36.1352 56.5373 36.2069C56.3873 36.2785 56.209 36.3152 56.0007 36.3152H54.5476ZM54.9975 34.5288H55.8074C55.9341 34.5288 56.0424 34.5104 56.134 34.4755C56.2257 34.4405 56.2957 34.3888 56.3423 34.3238C56.3906 34.2571 56.4156 34.1788 56.4156 34.0872C56.4156 33.9589 56.3623 33.8555 56.254 33.7822C56.1457 33.7072 55.9974 33.6706 55.8074 33.6706H54.9975V34.5288ZM54.9975 35.8836H55.999C56.1623 35.8836 56.289 35.8452 56.3823 35.7669C56.474 35.6886 56.5206 35.5836 56.5206 35.4503C56.5206 35.292 56.474 35.167 56.3823 35.0754C56.289 34.9837 56.1623 34.9387 55.999 34.9387H54.9975V35.8836Z" fill="white"/>
<path d="M58.1854 35.6186L59.6685 33.239H60.2134V36.3169H59.7402V33.9372L58.2654 36.3169H57.7122V33.239H58.1854V35.6186Z" fill="white"/>
<path d="M61.0798 36.3152V33.2373H62.338C62.6696 33.2373 62.9329 33.3123 63.1279 33.4623C63.3228 33.6123 63.4211 33.8089 63.4211 34.0555C63.4211 34.2422 63.3662 34.3871 63.2545 34.4904C63.1429 34.5921 63.0012 34.6621 62.8279 34.6971C62.9412 34.7137 63.0512 34.7521 63.1595 34.8171C63.2662 34.8804 63.3561 34.9704 63.4261 35.0804C63.4961 35.192 63.5328 35.3286 63.5328 35.4903C63.5328 35.6486 63.4928 35.7886 63.4128 35.9119C63.3328 36.0369 63.2178 36.1352 63.0695 36.2069C62.9195 36.2785 62.7412 36.3152 62.5329 36.3152H61.0798ZM61.5281 34.5288H62.338C62.4646 34.5288 62.5729 34.5104 62.6646 34.4755C62.7562 34.4405 62.8262 34.3888 62.8729 34.3238C62.9212 34.2571 62.9462 34.1788 62.9462 34.0872C62.9462 33.9589 62.8929 33.8555 62.7846 33.7822C62.6763 33.7072 62.5279 33.6706 62.338 33.6706H61.5281V34.5288ZM61.5281 35.8836H62.5296C62.6929 35.8836 62.8196 35.8452 62.9129 35.7669C63.0045 35.6886 63.0512 35.5836 63.0512 35.4503C63.0512 35.292 63.0045 35.167 62.9129 35.0754C62.8196 34.9837 62.6929 34.9387 62.5296 34.9387H61.5281V35.8836Z" fill="white"/>
<path d="M65.1492 36.3884C64.9543 36.3884 64.7776 36.3518 64.6193 36.2768C64.4593 36.2018 64.3327 36.0952 64.2411 35.9535C64.1477 35.8135 64.1011 35.6419 64.1011 35.4419C64.1011 35.2653 64.1361 35.122 64.2061 35.012C64.2744 34.902 64.3677 34.8154 64.4843 34.752C64.601 34.6904 64.7293 34.642 64.871 34.612C65.0109 34.5804 65.1526 34.5554 65.2959 34.5371C65.4825 34.5121 65.6342 34.4937 65.7508 34.4821C65.8675 34.4687 65.9525 34.4487 66.0074 34.4171C66.0624 34.3871 66.0891 34.3321 66.0891 34.2571V34.2404C66.0891 34.0438 66.0358 33.8888 65.9275 33.7788C65.8208 33.6705 65.6575 33.6155 65.4409 33.6155C65.2142 33.6155 65.0376 33.6639 64.9093 33.7638C64.781 33.8638 64.691 33.9688 64.6393 34.0805L64.1911 33.9205C64.2711 33.7339 64.3777 33.5872 64.5127 33.4822C64.646 33.3773 64.7943 33.3039 64.9543 33.2606C65.1142 33.2189 65.2709 33.1973 65.4259 33.1973C65.5242 33.1973 65.6375 33.2089 65.7675 33.2323C65.8958 33.2556 66.0208 33.3039 66.1424 33.3756C66.2641 33.4472 66.3641 33.5555 66.444 33.7022C66.524 33.8488 66.564 34.0421 66.564 34.2871V36.3151H66.0924V35.8985H66.0674C66.0358 35.9652 65.9825 36.0368 65.9075 36.1135C65.8325 36.1901 65.7325 36.2535 65.6092 36.3068C65.4809 36.3601 65.3292 36.3884 65.1492 36.3884ZM65.2226 35.9635C65.4092 35.9635 65.5675 35.9268 65.6958 35.8535C65.8241 35.7802 65.9225 35.6852 65.9891 35.5702C66.0541 35.4536 66.0891 35.3319 66.0891 35.2036V34.7704C66.0691 34.7954 66.0258 34.817 65.9575 34.8354C65.8891 34.8537 65.8125 34.8703 65.7242 34.8853C65.6375 34.9003 65.5525 34.912 65.4692 34.922C65.3875 34.932 65.3209 34.9403 65.2709 34.947C65.1476 34.9637 65.0326 34.9887 64.9276 35.0237C64.8226 35.0587 64.736 35.112 64.671 35.182C64.606 35.2519 64.5743 35.3469 64.5743 35.4669C64.5743 35.6319 64.636 35.7552 64.7576 35.8385C64.8776 35.9202 65.0343 35.9635 65.2226 35.9635Z" fill="white"/>
<path d="M67.6739 33.2375V36.3154H67.2007V33.2375H67.6739ZM68.9004 34.584V35.0256H67.274V34.584H68.9004ZM69.8469 36.3804C69.5686 36.3804 69.3254 36.3154 69.1171 36.1821C68.9087 36.0488 68.7454 35.8655 68.6288 35.6272C68.5121 35.3889 68.4538 35.1106 68.4538 34.794C68.4538 34.474 68.5121 34.1941 68.6288 33.9541C68.7454 33.7158 68.9087 33.5292 69.1171 33.3975C69.3254 33.2659 69.5686 33.1992 69.8469 33.1992C70.1252 33.1992 70.3685 33.2659 70.5768 33.3975C70.7851 33.5292 70.9484 33.7158 71.0651 33.9541C71.1817 34.1941 71.24 34.474 71.24 34.794C71.24 35.1123 71.1817 35.3906 71.0651 35.6272C70.9484 35.8655 70.7851 36.0488 70.5768 36.1821C70.3685 36.3154 70.1252 36.3804 69.8469 36.3804ZM69.8469 35.9555C70.0569 35.9555 70.2319 35.9021 70.3685 35.7938C70.5052 35.6855 70.6051 35.5439 70.6718 35.3672C70.7368 35.1906 70.7701 34.9989 70.7701 34.794C70.7701 34.589 70.7368 34.3974 70.6718 34.2191C70.6068 34.0408 70.5052 33.8974 70.3685 33.7875C70.2319 33.6775 70.0586 33.6225 69.8469 33.6225C69.637 33.6225 69.462 33.6775 69.3254 33.7875C69.1904 33.8974 69.0887 34.0408 69.0221 34.2191C68.9571 34.3974 68.9237 34.589 68.9237 34.794C68.9237 34.9989 68.9571 35.1906 69.0221 35.3672C69.0871 35.5439 69.1887 35.6855 69.3254 35.7938C69.462 35.9005 69.6353 35.9555 69.8469 35.9555Z" fill="white"/>
<path d="M72.0098 33.2373H72.483V35.8736H73.6445V33.2373H74.1178V35.8736H75.2809V33.2373H75.7525V36.3152H72.0098V33.2373ZM76.2091 35.8752L76.1541 37.1984H75.6659V36.3168H75.2659V35.8752H76.2091Z" fill="white"/>
<path d="M77.3724 35.6186L78.8555 33.239H79.4004V36.3169H78.9272V33.9372L77.4524 36.3169H76.8992V33.239H77.3724V35.6186Z" fill="white"/>
<path d="M81.5551 36.3802C81.2585 36.3802 81.0036 36.3152 80.7886 36.1836C80.5736 36.0519 80.4087 35.8669 80.2937 35.6303C80.1787 35.3937 80.1204 35.117 80.1204 34.8021C80.1204 34.4871 80.1787 34.2089 80.2937 33.9689C80.4087 33.7273 80.5703 33.539 80.7786 33.404C80.9852 33.269 81.2285 33.2007 81.5068 33.2007C81.6668 33.2007 81.8251 33.2273 81.9817 33.2807C82.1384 33.334 82.28 33.4207 82.4083 33.5406C82.5366 33.6606 82.6383 33.8173 82.715 34.0139C82.7916 34.2105 82.8283 34.4522 82.8283 34.7388V34.9388H80.4553V34.5305H82.3467C82.3467 34.3572 82.3117 34.2022 82.2434 34.0656C82.175 33.9289 82.0767 33.8223 81.9501 33.7423C81.8251 33.6639 81.6751 33.624 81.5052 33.624C81.3169 33.624 81.1535 33.6706 81.0169 33.7623C80.8802 33.8539 80.7753 33.9756 80.7019 34.1239C80.6286 34.2722 80.592 34.4322 80.592 34.6005V34.8721C80.592 35.1054 80.6319 35.302 80.7136 35.462C80.7953 35.622 80.9069 35.7453 81.0502 35.8286C81.1935 35.9119 81.3618 35.9536 81.5535 35.9536C81.6768 35.9536 81.7901 35.9353 81.8901 35.9003C81.9917 35.8653 82.0784 35.8119 82.1517 35.7403C82.225 35.6686 82.2817 35.5803 82.3217 35.4737L82.7783 35.602C82.7299 35.757 82.65 35.8936 82.5366 36.0102C82.4233 36.1269 82.2834 36.2169 82.1167 36.2819C81.9501 36.3469 81.7634 36.3802 81.5551 36.3802Z" fill="white"/>
<path d="M85.6109 35.6186L87.0941 33.239H87.639V36.3169H87.1657V33.9372L85.691 36.3169H85.1377V33.239H85.6109V35.6186Z" fill="white"/>
<path d="M90.4019 33.2373V33.6789H88.9755V36.3152H88.5022V33.2373H90.4019Z" fill="white"/>
<path d="M91.0918 37.4699V33.2389H91.5484V33.7272H91.6051C91.6401 33.6739 91.6884 33.6055 91.75 33.5222C91.8117 33.4389 91.9017 33.3639 92.0183 33.2973C92.135 33.2306 92.2933 33.1973 92.4949 33.1973C92.7532 33.1973 92.9815 33.2623 93.1798 33.3922C93.3764 33.5206 93.5314 33.7055 93.6431 33.9422C93.7531 34.1805 93.8097 34.4604 93.8097 34.7837C93.8097 35.1103 93.7547 35.3919 93.6431 35.6302C93.5314 35.8685 93.3781 36.0535 93.1815 36.1835C92.9848 36.3135 92.7599 36.3784 92.5016 36.3784C92.305 36.3784 92.145 36.3451 92.0266 36.2784C91.9083 36.2135 91.8167 36.1385 91.7534 36.0518C91.6884 35.9668 91.6401 35.8968 91.6051 35.8402H91.5651V37.4666H91.0918V37.4699ZM91.5567 34.777C91.5567 35.0103 91.5901 35.2136 91.6584 35.3903C91.7267 35.5669 91.8267 35.7052 91.9567 35.8052C92.0867 35.9052 92.2483 35.9552 92.4366 35.9552C92.6349 35.9552 92.7999 35.9035 92.9315 35.7985C93.0648 35.6935 93.1648 35.5519 93.2331 35.3736C93.2998 35.1953 93.3348 34.997 93.3348 34.777C93.3348 34.5604 93.3014 34.3654 93.2348 34.1905C93.1698 34.0155 93.0698 33.8772 92.9365 33.7755C92.8049 33.6739 92.6366 33.6222 92.4366 33.6222C92.245 33.6222 92.0833 33.6705 91.9517 33.7672C91.8217 33.8638 91.7217 33.9988 91.655 34.1721C91.5901 34.3454 91.5567 34.5471 91.5567 34.777Z" fill="white"/>
<path d="M94.7229 37.4617C94.6412 37.4617 94.5712 37.4551 94.5079 37.4434C94.4463 37.4301 94.4013 37.4184 94.378 37.4067L94.4979 36.9901C94.6712 37.0351 94.8145 37.0335 94.9295 36.9868C95.0445 36.9401 95.1445 36.8035 95.2278 36.5735L95.3161 36.3336L94.178 33.2407H94.6912L95.5394 35.6937H95.5711L96.421 33.2407L96.9376 33.2491L95.6278 36.7668C95.5694 36.9235 95.4961 37.0535 95.4095 37.1568C95.3228 37.2601 95.2212 37.3368 95.1078 37.3884C94.9945 37.4401 94.8645 37.4617 94.7229 37.4617Z" fill="white"/>
<path d="M97.5625 33.2373H98.0358V35.8736H99.1972V33.2373H99.6705V35.8736H100.834V33.2373H101.305V36.3152H97.5625V33.2373Z" fill="white"/>
<path d="M102.17 36.3152V33.2373H102.643V34.5754H102.957L104.063 33.2373H104.671L103.43 34.7187L104.688 36.3135H104.08L103.07 35.0154H102.645V36.3135H102.17V36.3152Z" fill="white"/>
<path d="M105.673 35.6186L107.156 33.239H107.701V36.3169H107.228V33.9372L105.753 36.3169H105.2V33.239H105.673V35.6186Z" fill="white"/>
<path d="M109.826 37.1967V35.8736H110.082C110.144 35.8086 110.199 35.7386 110.244 35.6619C110.289 35.5853 110.329 35.4953 110.364 35.3903C110.397 35.2853 110.427 35.157 110.451 35.0054C110.476 34.8537 110.496 34.6704 110.514 34.4555L110.619 33.2373H112.574V35.8736H113.047V37.1967H112.574V36.3152H110.297V37.1967H109.826ZM110.619 35.8752H112.1V33.6806H111.059L110.979 34.4571C110.946 34.7787 110.904 35.0604 110.856 35.3003C110.807 35.5403 110.727 35.7319 110.619 35.8752Z" fill="white"/>
<path d="M113.398 36.3152V35.8736H113.51C113.603 35.8736 113.68 35.8552 113.74 35.8186C113.802 35.7819 113.852 35.7169 113.89 35.6236C113.928 35.5303 113.957 35.402 113.978 35.2353C114 35.0687 114.013 34.8571 114.023 34.6004L114.078 33.2373H116.13V36.3152H115.656V33.6789H114.527L114.478 34.7771C114.468 35.0287 114.445 35.252 114.412 35.4436C114.377 35.6353 114.325 35.7952 114.257 35.9252C114.188 36.0535 114.097 36.1519 113.983 36.2185C113.87 36.2835 113.728 36.3168 113.557 36.3168H113.398V36.3152Z" fill="white"/>
<path d="M116.796 36.3152L117.669 34.7837H118.183L117.309 36.3152H116.796ZM118.847 36.3152V33.6706H118.031C117.846 33.6706 117.701 33.7139 117.596 33.7989C117.491 33.8855 117.438 34.0022 117.438 34.1505C117.438 34.2988 117.486 34.4138 117.581 34.4971C117.676 34.5804 117.808 34.6221 117.974 34.6221H118.967V35.0637H117.974C117.766 35.0637 117.586 35.027 117.436 34.9537C117.284 34.8804 117.169 34.7754 117.088 34.6388C117.006 34.5021 116.966 34.3388 116.966 34.1505C116.966 33.9622 117.009 33.7989 117.094 33.6622C117.181 33.5256 117.303 33.4206 117.463 33.3473C117.623 33.2723 117.813 33.2373 118.034 33.2373H119.299V36.3152H118.847Z" fill="white"/>
<path d="M121.42 37.1967V35.8736H121.677C121.739 35.8086 121.794 35.7386 121.839 35.6619C121.884 35.5853 121.924 35.4953 121.959 35.3903C121.992 35.2853 122.022 35.157 122.045 35.0054C122.07 34.8537 122.09 34.6704 122.109 34.4555L122.214 33.2373H124.168V35.8736H124.642V37.1967H124.168V36.3152H121.892V37.1967H121.42ZM122.214 35.8752H123.695V33.6806H122.654L122.574 34.4571C122.54 34.7787 122.499 35.0604 122.45 35.3003C122.4 35.5403 122.322 35.7319 122.214 35.8752Z" fill="white"/>
<path d="M126.558 36.3802C126.261 36.3802 126.006 36.3152 125.792 36.1836C125.577 36.0519 125.412 35.8669 125.297 35.6303C125.182 35.3937 125.123 35.117 125.123 34.8021C125.123 34.4871 125.182 34.2089 125.297 33.9689C125.412 33.7273 125.573 33.539 125.782 33.404C125.988 33.269 126.231 33.2007 126.51 33.2007C126.67 33.2007 126.828 33.2273 126.985 33.2807C127.141 33.334 127.283 33.4207 127.411 33.5406C127.54 33.6606 127.641 33.8173 127.718 34.0139C127.795 34.2105 127.831 34.4522 127.831 34.7388V34.9388H125.458V34.5305H127.35C127.35 34.3572 127.315 34.2022 127.246 34.0656C127.178 33.9289 127.08 33.8223 126.953 33.7423C126.828 33.6639 126.678 33.624 126.508 33.624C126.32 33.624 126.156 33.6706 126.02 33.7623C125.883 33.8539 125.778 33.9756 125.705 34.1239C125.632 34.2722 125.595 34.4322 125.595 34.6005V34.8721C125.595 35.1054 125.635 35.302 125.717 35.462C125.798 35.622 125.91 35.7453 126.053 35.8286C126.196 35.9119 126.365 35.9536 126.556 35.9536C126.68 35.9536 126.793 35.9353 126.893 35.9003C126.995 35.8653 127.081 35.8119 127.155 35.7403C127.228 35.6686 127.285 35.5803 127.325 35.4737L127.781 35.602C127.733 35.757 127.653 35.8936 127.54 36.0102C127.426 36.1269 127.286 36.2169 127.12 36.2819C126.953 36.3469 126.766 36.3802 126.558 36.3802Z" fill="white"/>
<path d="M128.264 33.6789V33.2373H130.766V33.6789H129.756V36.3152H129.283V33.6789H128.264Z" fill="white"/>
<path d="M132.584 36.3802C132.287 36.3802 132.032 36.3152 131.817 36.1836C131.602 36.0519 131.437 35.8669 131.322 35.6303C131.207 35.3937 131.149 35.117 131.149 34.8021C131.149 34.4871 131.207 34.2089 131.322 33.9689C131.437 33.7273 131.599 33.539 131.807 33.404C132.014 33.269 132.257 33.2007 132.535 33.2007C132.695 33.2007 132.854 33.2273 133.01 33.2807C133.167 33.334 133.309 33.4207 133.437 33.5406C133.565 33.6606 133.667 33.8173 133.744 34.0139C133.82 34.2105 133.857 34.4522 133.857 34.7388V34.9388H131.484V34.5305H133.375C133.375 34.3572 133.34 34.2022 133.272 34.0656C133.204 33.9289 133.105 33.8223 132.979 33.7423C132.854 33.6639 132.704 33.624 132.534 33.624C132.345 33.624 132.182 33.6706 132.045 33.7623C131.909 33.8539 131.804 33.9756 131.73 34.1239C131.657 34.2722 131.621 34.4322 131.621 34.6005V34.8721C131.621 35.1054 131.661 35.302 131.742 35.462C131.824 35.622 131.935 35.7453 132.079 35.8286C132.222 35.9119 132.39 35.9536 132.582 35.9536C132.705 35.9536 132.819 35.9353 132.919 35.9003C133.02 35.8653 133.107 35.8119 133.18 35.7403C133.254 35.6686 133.31 35.5803 133.35 35.4737L133.807 35.602C133.759 35.757 133.679 35.8936 133.565 36.0102C133.452 36.1269 133.312 36.2169 133.145 36.2819C132.979 36.3469 132.792 36.3802 132.584 36.3802Z" fill="white"/>
<path d="M135.053 35.6188L136.536 33.2391H137.081V36.317H136.608V33.9374L135.133 36.317H134.58V33.2391H135.053V35.6188ZM136.223 32.2126H136.665C136.665 32.4293 136.59 32.6059 136.44 32.7442C136.29 32.8809 136.087 32.9509 135.83 32.9509C135.578 32.9509 135.377 32.8825 135.228 32.7442C135.078 32.6076 135.005 32.4293 135.005 32.2126H135.447C135.447 32.3176 135.475 32.4076 135.533 32.4876C135.592 32.5659 135.692 32.6059 135.832 32.6059C135.972 32.6059 136.073 32.5659 136.133 32.4876C136.193 32.4076 136.223 32.3176 136.223 32.2126Z" fill="white"/>
<path d="M140.004 35.6186L141.487 33.239H142.032V36.3169H141.559V33.9372L140.084 36.3169H139.531V33.239H140.004V35.6186Z" fill="white"/>
<path d="M144.485 36.3152V33.2373H145.743C146.075 33.2373 146.338 33.3123 146.533 33.4623C146.728 33.6123 146.826 33.8089 146.826 34.0555C146.826 34.2422 146.771 34.3871 146.66 34.4904C146.548 34.5921 146.406 34.6621 146.233 34.6971C146.346 34.7137 146.456 34.7521 146.565 34.8171C146.671 34.8804 146.761 34.9704 146.831 35.0804C146.901 35.192 146.938 35.3286 146.938 35.4903C146.938 35.6486 146.898 35.7886 146.818 35.9119C146.738 36.0369 146.623 36.1352 146.475 36.2069C146.325 36.2785 146.147 36.3152 145.938 36.3152H144.485ZM144.933 34.5288H145.743C145.87 34.5288 145.978 34.5104 146.07 34.4755C146.162 34.4405 146.232 34.3888 146.278 34.3238C146.326 34.2571 146.351 34.1788 146.351 34.0872C146.351 33.9589 146.298 33.8555 146.19 33.7822C146.082 33.7072 145.933 33.6706 145.743 33.6706H144.933V34.5288ZM144.933 35.8836H145.935C146.098 35.8836 146.225 35.8452 146.318 35.7669C146.41 35.6886 146.456 35.5836 146.456 35.4503C146.456 35.292 146.41 35.167 146.318 35.0754C146.225 34.9837 146.098 34.9387 145.935 34.9387H144.933V35.8836Z" fill="white"/>
<path d="M147.458 35.5302H147.963C147.975 35.6685 148.038 35.7752 148.153 35.8469C148.268 35.9185 148.418 35.9552 148.604 35.9552C148.794 35.9552 148.956 35.9169 149.091 35.8385C149.226 35.7602 149.293 35.6336 149.293 35.4586C149.293 35.3553 149.268 35.2653 149.216 35.1886C149.164 35.112 149.094 35.052 149.001 35.0103C148.909 34.967 148.801 34.947 148.674 34.947H148.146V34.5221H148.674C148.863 34.5221 149.003 34.4787 149.093 34.3938C149.183 34.3071 149.228 34.2004 149.228 34.0721C149.228 33.9355 149.179 33.8238 149.081 33.7405C148.984 33.6572 148.846 33.6155 148.668 33.6155C148.488 33.6155 148.336 33.6555 148.216 33.7355C148.096 33.8172 148.033 33.9205 148.026 34.0471H147.53C147.535 33.8805 147.585 33.7355 147.681 33.6072C147.778 33.4806 147.91 33.3789 148.075 33.3073C148.241 33.2339 148.431 33.1973 148.643 33.1973C148.859 33.1973 149.048 33.2356 149.206 33.3106C149.366 33.3856 149.489 33.4872 149.578 33.6172C149.664 33.7455 149.708 33.8922 149.708 34.0555C149.708 34.2288 149.659 34.3704 149.561 34.4754C149.463 34.5821 149.341 34.6587 149.194 34.7037V34.7354C149.311 34.7437 149.413 34.7804 149.498 34.847C149.584 34.9137 149.651 35.0003 149.699 35.1053C149.748 35.212 149.771 35.3286 149.771 35.4569C149.771 35.6436 149.721 35.8069 149.621 35.9452C149.521 36.0835 149.383 36.1901 149.209 36.2651C149.034 36.3401 148.834 36.3784 148.609 36.3784C148.391 36.3784 148.196 36.3435 148.025 36.2718C147.853 36.2001 147.716 36.1001 147.615 35.9735C147.516 35.8469 147.463 35.6985 147.458 35.5302Z" fill="white"/>
<path d="M150.439 37.4699V33.2389H150.896V33.7272H150.952C150.987 33.6739 151.036 33.6055 151.097 33.5222C151.159 33.4389 151.249 33.3639 151.366 33.2973C151.482 33.2306 151.641 33.1973 151.842 33.1973C152.101 33.1973 152.329 33.2623 152.527 33.3922C152.724 33.5206 152.879 33.7055 152.99 33.9422C153.1 34.1805 153.157 34.4604 153.157 34.7837C153.157 35.1103 153.102 35.3919 152.99 35.6302C152.879 35.8685 152.726 36.0535 152.529 36.1835C152.332 36.3135 152.107 36.3784 151.849 36.3784C151.652 36.3784 151.492 36.3451 151.374 36.2784C151.256 36.2135 151.164 36.1385 151.101 36.0518C151.036 35.9668 150.987 35.8968 150.952 35.8402H150.912V37.4666H150.439V37.4699ZM150.904 34.777C150.904 35.0103 150.937 35.2136 151.006 35.3903C151.074 35.5669 151.174 35.7052 151.304 35.8052C151.434 35.9052 151.596 35.9552 151.784 35.9552C151.982 35.9552 152.147 35.9035 152.279 35.7985C152.412 35.6935 152.512 35.5519 152.581 35.3736C152.647 35.1953 152.682 34.997 152.682 34.777C152.682 34.5604 152.649 34.3654 152.582 34.1905C152.517 34.0155 152.417 33.8772 152.284 33.7755C152.152 33.6739 151.984 33.6222 151.784 33.6222C151.592 33.6222 151.431 33.6705 151.299 33.7672C151.169 33.8638 151.069 33.9988 151.002 34.1721C150.937 34.3454 150.904 34.5471 150.904 34.777Z" fill="white"/>
<path d="M155.127 36.3804C154.85 36.3804 154.605 36.3154 154.397 36.1821C154.189 36.0488 154.025 35.8655 153.909 35.6272C153.792 35.3889 153.734 35.1106 153.734 34.794C153.734 34.474 153.792 34.1941 153.909 33.9541C154.025 33.7158 154.189 33.5292 154.397 33.3975C154.605 33.2659 154.85 33.1992 155.127 33.1992C155.405 33.1992 155.648 33.2659 155.857 33.3975C156.065 33.5292 156.23 33.7158 156.345 33.9541C156.462 34.1941 156.52 34.474 156.52 34.794C156.52 35.1123 156.462 35.3906 156.345 35.6272C156.228 35.8655 156.065 36.0488 155.857 36.1821C155.648 36.3137 155.405 36.3804 155.127 36.3804ZM155.127 35.9555C155.338 35.9555 155.512 35.9021 155.648 35.7938C155.785 35.6855 155.885 35.5439 155.952 35.3672C156.017 35.1906 156.05 34.9989 156.05 34.794C156.05 34.589 156.018 34.3974 155.952 34.2191C155.885 34.0408 155.785 33.8974 155.648 33.7875C155.512 33.6775 155.338 33.6225 155.127 33.6225C154.917 33.6225 154.742 33.6775 154.605 33.7875C154.47 33.8974 154.369 34.0408 154.302 34.2191C154.237 34.3974 154.204 34.589 154.204 34.794C154.204 34.9989 154.237 35.1906 154.302 35.3672C154.367 35.5439 154.469 35.6855 154.605 35.7938C154.742 35.9005 154.917 35.9555 155.127 35.9555Z" fill="white"/>
<path d="M158.493 36.3804C158.205 36.3804 157.956 36.3121 157.748 36.1771C157.54 36.0404 157.38 35.8521 157.268 35.6138C157.157 35.3739 157.1 35.1006 157.1 34.794C157.1 34.4807 157.158 34.2057 157.273 33.9658C157.388 33.7258 157.55 33.5392 157.758 33.4025C157.965 33.2675 158.208 33.1992 158.486 33.1992C158.703 33.1992 158.898 33.2392 159.071 33.3192C159.245 33.3992 159.386 33.5108 159.498 33.6558C159.608 33.8008 159.678 33.9691 159.704 34.1607H159.231C159.195 34.0208 159.115 33.8958 158.991 33.7875C158.868 33.6791 158.701 33.6242 158.493 33.6242C158.31 33.6242 158.148 33.6725 158.01 33.7675C157.871 33.8625 157.765 33.9974 157.688 34.1707C157.611 34.3441 157.573 34.5457 157.573 34.779C157.573 35.0173 157.611 35.2239 157.686 35.4006C157.763 35.5772 157.87 35.7138 158.008 35.8105C158.146 35.9071 158.308 35.9571 158.495 35.9571C158.618 35.9571 158.73 35.9355 158.83 35.8938C158.93 35.8521 159.015 35.7905 159.085 35.7105C159.153 35.6305 159.203 35.5339 159.233 35.4206H159.706C159.679 35.6022 159.613 35.7655 159.508 35.9105C159.403 36.0554 159.265 36.1704 159.095 36.2554C158.92 36.3371 158.721 36.3804 158.493 36.3804Z" fill="white"/>
<path d="M160.119 36.3152V35.8736H160.231C160.324 35.8736 160.401 35.8552 160.461 35.8186C160.523 35.7819 160.573 35.7169 160.611 35.6236C160.649 35.5303 160.678 35.402 160.699 35.2353C160.721 35.0687 160.734 34.8571 160.744 34.6004L160.799 33.2373H162.851V36.3152H162.377V33.6789H161.248L161.199 34.7771C161.189 35.0287 161.166 35.252 161.133 35.4436C161.098 35.6353 161.046 35.7952 160.978 35.9252C160.909 36.0535 160.818 36.1519 160.704 36.2185C160.591 36.2835 160.449 36.3168 160.278 36.3168H160.119V36.3152Z" fill="white"/>
<path d="M164.127 34.3521H165.009C165.369 34.3521 165.645 34.4438 165.835 34.6271C166.027 34.8104 166.122 35.042 166.122 35.322C166.122 35.507 166.079 35.6736 165.994 35.8252C165.909 35.9752 165.784 36.0952 165.617 36.1835C165.452 36.2718 165.249 36.3168 165.009 36.3168H163.717V33.239H164.191V35.8752H165.009C165.195 35.8752 165.349 35.8269 165.469 35.7269C165.589 35.6286 165.649 35.502 165.649 35.347C165.649 35.1837 165.589 35.0504 165.469 34.9487C165.349 34.8454 165.195 34.7937 165.009 34.7937H164.127V34.3521ZM166.612 36.3152V33.2373H167.085V36.3152H166.612Z" fill="white"/>
<path d="M168.303 33.2373L169.04 34.4954L169.778 33.2373H170.323L169.33 34.7754L170.323 36.3135H169.778L169.04 35.1204L168.303 36.3135H167.758L168.736 34.7754L167.758 33.2373H168.303Z" fill="white"/>
<path d="M29.05 18.0082C24.0875 17.8049 20.2148 13.6022 20.4181 8.63962C20.6214 3.67707 24.824 -0.195649 29.7866 0.00765209C34.7491 0.210954 38.6219 4.41362 38.4186 9.37618C38.2169 14.3387 34.0143 18.2115 29.05 18.0082ZM29.575 5.17351C27.4603 5.08686 25.6689 6.73659 25.5823 8.85126C25.4956 10.9659 27.1453 12.7573 29.26 12.8423C31.3747 12.929 33.1661 11.2792 33.251 9.16454C33.341 7.04987 31.6896 5.26016 29.575 5.17351Z" fill="url(#paint2_linear_91_1173)"/>
<path d="M8.72811 8.69625L0.109456 22.3058C-0.178832 22.7624 0.134455 23.3606 0.67437 23.3823L16.7702 24.0405C17.3101 24.0622 17.6717 23.4923 17.4201 23.014L9.94292 8.74456C9.69129 8.26797 9.0164 8.23966 8.72811 8.69625Z" fill="#76C591"/>
<path d="M30.728 9.06123C30.698 9.78445 30.0864 10.3477 29.3632 10.3177C28.64 10.2877 28.0784 9.67613 28.1067 8.95291C28.1367 8.22969 28.7466 7.66646 29.4699 7.69646C30.1947 7.72645 30.758 8.33801 30.728 9.06123Z" fill="#76C591"/>
<path d="M15.7436 43.9942L6.92667 34.4256C5.22027 32.5726 5.33692 29.6864 7.18997 27.98L16.7585 19.1647C18.6115 17.4583 21.4961 17.575 23.2041 19.428L32.0194 28.9965C33.7258 30.8495 33.6092 33.7341 31.7561 35.4422L22.1876 44.2591C20.3362 45.9638 17.45 45.8455 15.7436 43.9942ZM11.7842 32.0677L18.4899 39.3465C18.8448 39.7315 19.4447 39.7565 19.8296 39.4015L27.1085 32.6959C27.4934 32.341 27.5184 31.7411 27.1635 31.3561L20.4579 24.0773C20.1029 23.6923 19.503 23.6673 19.1181 24.0223L11.8392 30.7279C11.4543 31.0812 11.4293 31.6811 11.7842 32.0677Z" fill="url(#paint3_linear_91_1173)"/>
<path d="M29.4183 9.00781L19.4749 31.7109" stroke="#76C591" stroke-width="0.9073" stroke-miterlimit="10"/>
<path d="M19.4749 32.9624C20.166 32.9624 20.7263 32.4021 20.7263 31.7109C20.7263 31.0198 20.166 30.4595 19.4749 30.4595C18.7837 30.4595 18.2234 31.0198 18.2234 31.7109C18.2234 32.4021 18.7837 32.9624 19.4749 32.9624Z" fill="#82C2EB"/>
<defs>
<linearGradient id="paint0_linear_91_1173" x1="201.595" y1="0.882905" x2="201.595" y2="20.4621" gradientUnits="userSpaceOnUse">
<stop offset="0.00035903" stop-color="#FEEB8A"/>
<stop offset="0.2675" stop-color="#F8C3A8"/>
<stop offset="0.5391" stop-color="#F59BB6"/>
<stop offset="0.6841" stop-color="#F497B5"/>
<stop offset="0.8639" stop-color="#F28BB1"/>
<stop offset="0.9989" stop-color="#EF7FAD"/>
</linearGradient>
<linearGradient id="paint1_linear_91_1173" x1="213.324" y1="0.882864" x2="213.324" y2="20.462" gradientUnits="userSpaceOnUse">
<stop offset="0.00035903" stop-color="#FEEB8A"/>
<stop offset="0.2675" stop-color="#F8C3A8"/>
<stop offset="0.5391" stop-color="#F59BB6"/>
<stop offset="0.6841" stop-color="#F497B5"/>
<stop offset="0.8639" stop-color="#F28BB1"/>
<stop offset="0.9989" stop-color="#EF7FAD"/>
</linearGradient>
<linearGradient id="paint2_linear_91_1173" x1="20.4563" y1="11.6205" x2="37.7603" y2="6.59745" gradientUnits="userSpaceOnUse">
<stop stop-color="#B1DCF5"/>
<stop offset="0.9985" stop-color="#82C2EB"/>
</linearGradient>
<linearGradient id="paint3_linear_91_1173" x1="22.6915" y1="44.6167" x2="13.8645" y2="9.23554" gradientUnits="userSpaceOnUse">
<stop offset="0.00035903" stop-color="#FEEB8A"/>
<stop offset="0.2675" stop-color="#F8C3A8"/>
<stop offset="0.5391" stop-color="#F59BB6"/>
<stop offset="0.6841" stop-color="#F497B5"/>
<stop offset="0.8639" stop-color="#F28BB1"/>
<stop offset="0.9989" stop-color="#EF7FAD"/>
</linearGradient>
</defs>
</svg>
