<svg width="41" height="25" viewBox="0 0 41 25" fill="none" xmlns="http://www.w3.org/2000/svg">
<path d="M40.9488 12.026C40.9488 18.6249 35.5833 24.052 28.9227 24.052C22.3239 24.052 16.8967 18.6249 16.8967 12.026C16.8967 5.42713 22.2622 0 28.8611 0C35.5833 0 40.9488 5.42713 40.9488 12.026Z" fill="#F9B50B"/>
<path d="M24.8524 12.0879C24.8524 11.2245 24.7291 10.3611 24.6057 9.55939H17.2051C17.2668 9.12768 17.3901 8.75765 17.5135 8.26428H24.1124C23.989 7.83257 23.804 7.40087 23.619 6.96917H18.0068C18.1919 6.53747 18.4385 6.16743 18.6852 5.67406H22.9406C22.6939 5.24235 22.3855 4.81065 22.0155 4.37895H19.672C20.042 3.94725 20.4121 3.57721 20.9054 3.14551C18.8086 1.17201 15.9717 0.000244141 12.8264 0.000244141C6.28919 0.18526 0.862061 5.42737 0.862061 12.0263C0.862061 18.6252 6.22751 24.0523 12.8881 24.0523C16.0333 24.0523 18.8086 22.8188 20.9671 20.907C21.3988 20.537 21.7688 20.1053 22.2005 19.6119H19.7337C19.4253 19.2419 19.1169 18.8102 18.8703 18.3785H23.0639C23.3106 18.0084 23.5573 17.5767 23.7423 17.0834H18.1302C17.9452 16.7133 17.7602 16.2816 17.6368 15.7882H24.2357C24.6057 14.6782 24.8524 13.4447 24.8524 12.0879Z" fill="#C8191C"/>
<path d="M17.1434 15.1097L17.3284 13.9996C17.2667 13.9996 17.1434 14.0613 17.02 14.0613C16.5883 14.0613 16.5267 13.8146 16.5883 13.6912L16.9584 11.4711H17.6367L17.8218 10.2376H17.205L17.3284 9.49756H16.0333C16.0333 9.49756 15.2932 13.6912 15.2932 14.1846C15.2932 14.9247 15.7249 15.2947 16.3416 15.2947C16.7117 15.2947 17.02 15.1714 17.1434 15.1097Z" fill="white"/>
<path d="M17.5752 13.0745C17.5752 14.863 18.8086 15.2947 19.7954 15.2947C20.7205 15.2947 21.1522 15.1097 21.1522 15.1097L21.3989 13.8762C21.3989 13.8762 20.7205 14.1846 20.0421 14.1846C18.6236 14.1846 18.8703 13.1362 18.8703 13.1362H21.4605C21.4605 13.1362 21.6455 12.3344 21.6455 11.9644C21.6455 11.1627 21.2138 10.1142 19.7954 10.1142C18.5619 10.0526 17.5752 11.471 17.5752 13.0745ZM19.7954 11.2243C20.4738 11.2243 20.3504 12.0261 20.3504 12.0877H18.932C18.9936 12.0261 19.117 11.2243 19.7954 11.2243Z" fill="white"/>
<path d="M27.8744 15.1095L28.1211 13.691C28.1211 13.691 27.5044 13.9994 27.011 13.9994C26.1476 13.9994 25.7159 13.321 25.7159 12.5193C25.7159 10.9775 26.456 10.1757 27.3811 10.1757C27.9978 10.1757 28.5528 10.5458 28.5528 10.5458L28.7378 9.18897C28.7378 9.18897 27.9978 8.88062 27.2577 8.88062C25.7776 8.88062 24.3591 10.1757 24.3591 12.5809C24.3591 14.1844 25.0992 15.2328 26.641 15.2328C27.196 15.2945 27.8744 15.1095 27.8744 15.1095Z" fill="white"/>
<path d="M10.1747 10.0525C9.31133 10.0525 8.63294 10.2992 8.63294 10.2992L8.44792 11.4093C8.44792 11.4093 9.00297 11.1626 9.86638 11.1626C10.2981 11.1626 10.6681 11.2243 10.6681 11.5943C10.6681 11.841 10.6064 11.9026 10.6064 11.9026H10.0514C8.9413 11.9026 7.76953 12.3344 7.76953 13.8145C7.76953 14.9862 8.50959 15.2329 9.00297 15.2329C9.86638 15.2329 10.2981 14.6779 10.3598 14.6779L10.2981 15.1713H11.3465L11.8399 11.656C11.8399 10.1142 10.6064 10.0525 10.1747 10.0525ZM10.4214 12.8894C10.4214 13.0744 10.2981 14.1228 9.55802 14.1228C9.18799 14.1228 9.06464 13.8145 9.06464 13.6295C9.06464 13.3211 9.24966 12.8894 10.2364 12.8894C10.3598 12.8894 10.4214 12.8894 10.4214 12.8894Z" fill="white"/>
<path d="M13.073 15.2333C13.3814 15.2333 14.9849 15.295 14.9849 13.5682C14.9849 11.9647 13.4431 12.2731 13.4431 11.6564C13.4431 11.348 13.6898 11.2246 14.1215 11.2246C14.3065 11.2246 14.9849 11.2863 14.9849 11.2863L15.1699 10.1146C15.1699 10.1146 14.7382 9.99121 13.9365 9.99121C13.0114 9.99121 12.0246 10.3612 12.0246 11.6564C12.0246 13.1365 13.6281 13.0131 13.6281 13.5682C13.6281 13.9382 13.1964 13.9999 12.888 13.9999C12.333 13.9999 11.7163 13.8149 11.7163 13.8149L11.5312 14.9866C11.6546 15.11 12.0246 15.2333 13.073 15.2333Z" fill="white"/>
<path d="M38.4819 9.06592L38.2352 10.7927C38.2352 10.7927 37.7418 10.176 37.0018 10.176C35.83 10.176 34.8433 11.5945 34.8433 13.2596C34.8433 14.308 35.3366 15.3565 36.4467 15.3565C37.1868 15.3565 37.6802 14.8631 37.6802 14.8631L37.6185 15.2948H38.9136L39.8387 9.18926L38.4819 9.06592ZM37.8652 12.3962C37.8652 13.0746 37.5568 13.9997 36.8168 13.9997C36.3851 13.9997 36.1384 13.6296 36.1384 12.9512C36.1384 11.9028 36.5701 11.2861 37.1868 11.2861C37.6185 11.3478 37.8652 11.6561 37.8652 12.3962Z" fill="white"/>
<path d="M3.20561 15.1714L3.94567 10.6077L4.06901 15.1714H4.93242L6.59756 10.6077L5.91917 15.1714H7.27595L8.32437 9.06592H6.22753L4.93242 12.8279L4.87075 9.06592H3.02059L1.97217 15.1714H3.20561Z" fill="white"/>
<path d="M22.9407 15.1712C23.3107 13.0744 23.3724 11.3475 24.2975 11.6559C24.4208 10.8542 24.6058 10.4841 24.7292 10.1758H24.4825C23.9274 10.1758 23.434 10.9158 23.434 10.9158L23.5574 10.2375H22.324L21.5222 15.1712H22.9407Z" fill="white"/>
<path d="M30.8349 10.0525C29.9715 10.0525 29.2931 10.2992 29.2931 10.2992L29.1081 11.4093C29.1081 11.4093 29.6631 11.1626 30.5265 11.1626C30.9582 11.1626 31.3283 11.2243 31.3283 11.5943C31.3283 11.841 31.2666 11.9026 31.2666 11.9026H30.7115C29.6015 11.9026 28.4297 12.3344 28.4297 13.8145C28.4297 14.9862 29.1698 15.2329 29.6631 15.2329C30.5265 15.2329 30.9582 14.6779 31.0199 14.6779L30.9582 15.1713H32.13L32.6234 11.656C32.6234 10.1142 31.2666 10.0525 30.8349 10.0525ZM31.1432 12.8894C31.1432 13.0744 31.0199 14.1228 30.2798 14.1228C29.9098 14.1228 29.7865 13.8145 29.7865 13.6295C29.7865 13.3211 29.9715 12.8894 30.9582 12.8894C31.0816 12.8894 31.0816 12.8894 31.1432 12.8894Z" fill="white"/>
<path d="M33.6099 15.1712C33.9799 13.0744 34.0416 11.3475 34.9666 11.6559C35.09 10.8542 35.275 10.4841 35.3983 10.1758H35.1517C34.5966 10.1758 34.1032 10.9158 34.1032 10.9158L34.2266 10.2375H32.9931L32.1914 15.1712H33.6099Z" fill="white"/>
</svg>
