<svg width="33" height="10" viewBox="0 0 33 10" fill="none" xmlns="http://www.w3.org/2000/svg">
<path d="M29.6027 0.246338H23.2505C23.6205 2.34318 25.6557 4.31669 27.8759 4.31669H32.933C32.9947 4.13167 32.9946 3.82331 32.9946 3.63829C32.9946 1.78814 31.4528 0.246338 29.6027 0.246338Z" fill="url(#paint0_linear_91_1260)"/>
<path d="M23.8054 4.68701V9.80577H26.889V7.09221H29.6026C31.0827 7.09221 32.3778 6.04379 32.8095 4.68701H23.8054Z" fill="#4FAD50"/>
<path d="M12.9512 0.246338V9.74382H15.6648C15.6648 9.74382 16.3431 9.74381 16.7132 9.06542C18.5633 5.42678 19.1184 4.31669 19.1184 4.31669H19.4884V9.74382H22.572V0.246338H19.8584C19.8584 0.246338 19.18 0.308014 18.81 0.924733C17.2682 4.07 16.4048 5.67347 16.4048 5.67347H16.0348V0.246338H12.9512Z" fill="#4FAD50"/>
<path d="M0 9.80631V0.308838H3.08359C3.08359 0.308838 3.94701 0.308836 4.44038 1.66562C5.67382 5.24259 5.79717 5.73597 5.79717 5.73597C5.79717 5.73597 6.04385 4.87256 7.15394 1.66562C7.64732 0.308836 8.51073 0.308838 8.51073 0.308838H11.5943V9.80631H8.51073V4.68755H8.1407L6.41389 9.80631H5.0571L3.3303 4.68755H2.96026V9.80631H0Z" fill="#4FAD50"/>
<defs>
<linearGradient id="paint0_linear_91_1260" x1="23.2395" y1="2.31068" x2="32.9728" y2="2.31068" gradientUnits="userSpaceOnUse">
<stop stop-color="#27B1E6"/>
<stop offset="1" stop-color="#148ACA"/>
</linearGradient>
</defs>
</svg>
