<svg width="159" height="29" viewBox="0 0 159 29" fill="none" xmlns="http://www.w3.org/2000/svg">
<path d="M34.8653 8.53467H27.3838C27.8196 11.0043 30.2166 13.3286 32.8315 13.3286H38.7876C38.8603 13.1107 38.8603 12.7476 38.8603 12.5296C38.8603 10.3506 37.0444 8.53467 34.8653 8.53467Z" fill="url(#paint0_linear_91_437)"/>
<path d="M28.0376 13.7646V19.7934H31.6694V16.5974H34.8654C36.6086 16.5974 38.134 15.3626 38.6424 13.7646H28.0376Z" fill="#4FAD50"/>
<path d="M15.2534 8.53467V19.7206H18.4494C18.4494 19.7206 19.2484 19.7206 19.6842 18.9216C21.8633 14.6361 22.517 13.3286 22.517 13.3286H22.9528V19.7206H26.5846V8.53467H23.3886C23.3886 8.53467 22.5896 8.60731 22.1538 9.33367C20.3379 13.0381 19.321 14.9266 19.321 14.9266H18.8852V8.53467H15.2534Z" fill="#4FAD50"/>
<path d="M0 19.7936V8.60767H3.6318C3.6318 8.60767 4.64871 8.60766 5.22979 10.2057C6.68251 14.4185 6.82779 14.9996 6.82779 14.9996C6.82779 14.9996 7.11832 13.9827 8.42577 10.2057C9.00686 8.60766 10.0238 8.60767 10.0238 8.60767H13.6556V19.7936H10.0238V13.7648H9.58795L7.55415 19.7936H5.95615L3.92236 13.7648H3.48654V19.7936H0Z" fill="#4FAD50"/>
<path d="M97.6957 14.164C97.6957 21.936 91.3764 28.328 83.5317 28.328C75.7596 28.328 69.3677 21.936 69.3677 14.164C69.3677 6.39196 75.687 0 83.459 0C91.3764 0 97.6957 6.39196 97.6957 14.164Z" fill="#F9B50B"/>
<path d="M78.7375 14.2369C78.7375 13.22 78.5923 12.2031 78.447 11.2588H69.7307C69.8033 10.7504 69.9486 10.3145 70.0939 9.73346H77.8659C77.7206 9.225 77.5027 8.71655 77.2848 8.2081H70.675C70.8929 7.69965 71.1834 7.26383 71.474 6.68275H76.4858C76.1953 6.1743 75.8321 5.66584 75.3963 5.15739H72.6361C73.0719 4.64894 73.5078 4.21313 74.0888 3.70468C71.6192 1.38033 68.278 0.000244141 64.5735 0.000244141C56.8741 0.218152 50.4822 6.3922 50.4822 14.1642C50.4822 21.9363 56.8015 28.3282 64.6462 28.3282C68.3506 28.3282 71.6192 26.8755 74.1615 24.6238C74.6699 24.188 75.1057 23.6796 75.6142 23.0985H72.7088C72.3456 22.6626 71.9824 22.1542 71.6919 21.6457H76.6311C76.9216 21.2099 77.2122 20.7015 77.4301 20.1204H70.8202C70.6023 19.6846 70.3844 19.1761 70.2391 18.595H78.0112C78.447 17.2876 78.7375 15.8349 78.7375 14.2369Z" fill="#C8191C"/>
<path d="M69.6581 17.7959L69.876 16.4885C69.8034 16.4885 69.6581 16.5611 69.5128 16.5611C69.0044 16.5611 68.9317 16.2705 69.0044 16.1253L69.4402 13.5104H70.2392L70.4571 12.0577H69.7307L69.876 11.186H68.3506C68.3506 11.186 67.479 16.1253 67.479 16.7064C67.479 17.578 67.9875 18.0138 68.7138 18.0138C69.1496 18.0138 69.5128 17.8685 69.6581 17.7959Z" fill="white"/>
<path d="M70.1665 15.399C70.1665 17.5054 71.6192 18.0139 72.7814 18.0139C73.8709 18.0139 74.3794 17.7959 74.3794 17.7959L74.6699 16.3432C74.6699 16.3432 73.8709 16.7064 73.0719 16.7064C71.4013 16.7064 71.6919 15.4716 71.6919 15.4716H74.7426C74.7426 15.4716 74.9605 14.5273 74.9605 14.0915C74.9605 13.1473 74.452 11.9124 72.7814 11.9124C71.3287 11.8398 70.1665 13.5104 70.1665 15.399ZM72.7814 13.2199C73.5804 13.2199 73.4351 14.1642 73.4351 14.2368H71.7645C71.8371 14.1642 71.9824 13.2199 72.7814 13.2199Z" fill="white"/>
<path d="M82.2967 17.7957L82.5873 16.1251C82.5873 16.1251 81.8609 16.4883 81.2798 16.4883C80.2629 16.4883 79.7545 15.6893 79.7545 14.745C79.7545 12.9291 80.6261 11.9848 81.7157 11.9848C82.442 11.9848 83.0957 12.4206 83.0957 12.4206L83.3136 10.8227C83.3136 10.8227 82.442 10.4595 81.5704 10.4595C79.8271 10.4595 78.1565 11.9848 78.1565 14.8176C78.1565 16.7062 79.0281 17.941 80.844 17.941C81.4977 18.0136 82.2967 17.7957 82.2967 17.7957Z" fill="white"/>
<path d="M61.4505 11.8396C60.4336 11.8396 59.6346 12.1301 59.6346 12.1301L59.4167 13.4376C59.4167 13.4376 60.0704 13.147 61.0873 13.147C61.5957 13.147 62.0316 13.2197 62.0316 13.6555C62.0316 13.946 61.9589 14.0187 61.9589 14.0187H61.3052C59.9978 14.0187 58.6177 14.5271 58.6177 16.2704C58.6177 17.6505 59.4893 17.941 60.0704 17.941C61.0873 17.941 61.5957 17.2873 61.6684 17.2873L61.5957 17.8684H62.8306L63.4116 13.7281C63.4116 11.9122 61.9589 11.8396 61.4505 11.8396ZM61.741 15.1809C61.741 15.3988 61.5957 16.6336 60.7241 16.6336C60.2883 16.6336 60.143 16.2704 60.143 16.0525C60.143 15.6893 60.3609 15.1809 61.5231 15.1809C61.6684 15.1809 61.741 15.1809 61.741 15.1809Z" fill="white"/>
<path d="M64.864 17.9414C65.2272 17.9414 67.1157 18.014 67.1157 15.9802C67.1157 14.0917 65.2998 14.4549 65.2998 13.7285C65.2998 13.3653 65.5904 13.2201 66.0988 13.2201C66.3167 13.2201 67.1157 13.2927 67.1157 13.2927L67.3336 11.9126C67.3336 11.9126 66.8252 11.7673 65.8809 11.7673C64.7914 11.7673 63.6292 12.2031 63.6292 13.7285C63.6292 15.4718 65.5177 15.3265 65.5177 15.9802C65.5177 16.416 65.0093 16.4887 64.6461 16.4887C63.9924 16.4887 63.266 16.2708 63.266 16.2708L63.0481 17.6508C63.1934 17.7961 63.6292 17.9414 64.864 17.9414Z" fill="white"/>
<path d="M94.7902 10.6777L94.4996 12.7115C94.4996 12.7115 93.9185 11.9852 93.0469 11.9852C91.6668 11.9852 90.5046 13.6558 90.5046 15.617C90.5046 16.8518 91.0857 18.0866 92.3932 18.0866C93.2648 18.0866 93.8459 17.5055 93.8459 17.5055L93.7733 18.014H95.2986L96.3881 10.823L94.7902 10.6777ZM94.0638 14.6001C94.0638 15.3991 93.7006 16.4886 92.829 16.4886C92.3205 16.4886 92.03 16.0528 92.03 15.2538C92.03 14.019 92.5384 13.2926 93.2648 13.2926C93.7733 13.3653 94.0638 13.7284 94.0638 14.6001Z" fill="white"/>
<path d="M53.2423 17.8687L54.1139 12.4936L54.2592 17.8687H55.2761L57.2372 12.4936L56.4382 17.8687H58.0362L59.271 10.6777H56.8014L55.2761 15.1085L55.2034 10.6777H53.0244L51.7896 17.8687H53.2423Z" fill="white"/>
<path d="M76.4858 17.8684C76.9216 15.3988 76.9943 13.3649 78.0838 13.7281C78.2291 12.7839 78.447 12.348 78.5923 11.9849H78.3017C77.648 11.9849 77.0669 12.8565 77.0669 12.8565L77.2122 12.0575H75.7595L74.8152 17.8684H76.4858Z" fill="white"/>
<path d="M85.7835 11.8396C84.7666 11.8396 83.9676 12.1301 83.9676 12.1301L83.7497 13.4376C83.7497 13.4376 84.4034 13.147 85.4203 13.147C85.9288 13.147 86.3646 13.2197 86.3646 13.6555C86.3646 13.946 86.2919 14.0187 86.2919 14.0187H85.6382C84.3308 14.0187 82.9507 14.5271 82.9507 16.2704C82.9507 17.6505 83.8223 17.941 84.4034 17.941C85.4203 17.941 85.9288 17.2873 86.0014 17.2873L85.9288 17.8684H87.3088L87.8899 13.7281C87.8899 11.9122 86.2919 11.8396 85.7835 11.8396ZM86.1467 15.1809C86.1467 15.3988 86.0014 16.6336 85.1298 16.6336C84.6939 16.6336 84.5487 16.2704 84.5487 16.0525C84.5487 15.6893 84.7666 15.1809 85.9288 15.1809C86.074 15.1809 86.074 15.1809 86.1467 15.1809Z" fill="white"/>
<path d="M89.0517 17.8684C89.4875 15.3988 89.5602 13.3649 90.6497 13.7281C90.795 12.7839 91.0129 12.348 91.1582 11.9849H90.8676C90.2139 11.9849 89.6328 12.8565 89.6328 12.8565L89.7781 12.0575H88.3254L87.3811 17.8684H89.0517Z" fill="white"/>
<path d="M155.659 6.75513H152.536C151.591 6.75513 150.865 7.04567 150.429 7.98994L144.473 21.5729H148.686C148.686 21.5729 149.412 19.757 149.558 19.3211C149.993 19.3211 154.134 19.3211 154.715 19.3211C154.86 19.8296 155.223 21.5002 155.223 21.5002H159L155.659 6.75513ZM150.72 16.2704C151.083 15.3988 152.318 12.1302 152.318 12.1302C152.318 12.2028 152.681 11.2586 152.826 10.7501L153.117 12.0575C153.117 12.0575 153.916 15.6167 154.061 16.3431H150.72V16.2704Z" fill="#3362AB"/>
<path d="M144.763 16.7064C144.763 19.7571 142.003 21.7909 137.718 21.7909C135.902 21.7909 134.159 21.4277 133.214 20.9919L133.795 17.6506L134.304 17.8686C135.611 18.4496 136.483 18.6675 138.081 18.6675C139.243 18.6675 140.478 18.2317 140.478 17.2148C140.478 16.5611 139.969 16.1253 138.372 15.3989C136.846 14.6726 134.812 13.5104 134.812 11.404C134.812 8.49852 137.645 6.53735 141.64 6.53735C143.165 6.53735 144.473 6.8279 145.272 7.19108L144.691 10.3871L144.4 10.0965C143.674 9.80597 142.73 9.51543 141.35 9.51543C139.824 9.58806 139.098 10.2418 139.098 10.8229C139.098 11.4766 139.969 11.985 141.35 12.6388C143.674 13.7283 144.763 14.9631 144.763 16.7064Z" fill="#3362AB"/>
<path d="M109.317 6.9009L109.39 6.61035H115.636C116.508 6.61035 117.162 6.9009 117.38 7.84516L118.76 14.3824C117.38 10.8959 114.184 8.06307 109.317 6.9009Z" fill="#F9B50B"/>
<path d="M127.549 6.75525L121.23 21.5003H116.944L113.312 9.15224C115.927 10.8229 118.106 13.4378 118.905 15.2537L119.341 16.779L123.263 6.68262H127.549V6.75525Z" fill="#3362AB"/>
<path d="M129.22 6.68262H133.214L130.672 21.5003H126.677L129.22 6.68262Z" fill="#3362AB"/>
<defs>
<linearGradient id="paint0_linear_91_437" x1="27.3709" y1="10.966" x2="38.8345" y2="10.966" gradientUnits="userSpaceOnUse">
<stop stop-color="#27B1E6"/>
<stop offset="1" stop-color="#148ACA"/>
</linearGradient>
</defs>
</svg>
