<svg width="43" height="14" viewBox="0 0 43 14" fill="none" xmlns="http://www.w3.org/2000/svg">
<path d="M40.1632 0.735352H37.5114C36.7096 0.735352 36.0929 0.982039 35.7229 1.78377L30.6658 13.3164H34.2427C34.2427 13.3164 34.8595 11.7746 34.9828 11.4046C35.3528 11.4046 38.8681 11.4046 39.3615 11.4046C39.4849 11.8363 39.7932 13.2547 39.7932 13.2547H43.0001L40.1632 0.735352ZM35.9696 8.81437C36.2779 8.07431 37.3263 5.29907 37.3263 5.29907C37.3263 5.36074 37.6347 4.55901 37.758 4.12731L38.0047 5.2374C38.0047 5.2374 38.6831 8.25932 38.8065 8.87604H35.9696V8.81437Z" fill="#3362AB"/>
<path d="M30.9123 9.1846C30.9123 11.7748 28.5687 13.5016 24.9301 13.5016C23.3883 13.5016 21.9082 13.1933 21.1064 12.8232L21.5998 9.98634L22.0315 10.1714C23.1416 10.6647 23.8817 10.8497 25.2385 10.8497C26.2252 10.8497 27.2736 10.4797 27.2736 9.61631C27.2736 9.06126 26.8419 8.69123 25.4851 8.07451C24.19 7.45779 22.4632 6.47104 22.4632 4.68255C22.4632 2.21568 24.8684 0.550537 28.2604 0.550537C29.5555 0.550537 30.6656 0.797225 31.344 1.10558L30.8506 3.81915L30.6039 3.57246C29.9872 3.32577 29.1855 3.07908 28.0137 3.07908C26.7186 3.14076 26.1019 3.6958 26.1019 4.18918C26.1019 4.74423 26.8419 5.17593 28.0137 5.73098C29.9872 6.65605 30.9123 7.70448 30.9123 9.1846Z" fill="#3362AB"/>
<path d="M0.816406 0.859725L0.878078 0.613037H6.18186C6.92192 0.613037 7.47697 0.859725 7.66199 1.66146L8.83375 7.21193C7.66199 4.25168 4.94842 1.84648 0.816406 0.859725Z" fill="#F9B50B"/>
<path d="M16.2962 0.7355L10.9307 13.2549H7.29209L4.2085 2.77067C6.42868 4.18913 8.27884 6.40931 8.95723 7.95111L9.32726 9.24622L12.6575 0.673828H16.2962V0.7355Z" fill="#3362AB"/>
<path d="M17.7147 0.673828H21.1066L18.9481 13.2549H15.5562L17.7147 0.673828Z" fill="#3362AB"/>
</svg>
